<svg width="44" height="41" viewBox="0 0 44 41" fill="none" xmlns="http://www.w3.org/2000/svg">
<path d="M16.9585 37.5832L16.2252 32.1165C15.828 31.9741 15.4537 31.8033 15.1023 31.604C14.7509 31.4047 14.4071 31.1912 14.071 30.9634L8.61686 33.0988L3.5752 24.9842L8.29603 21.653C8.26547 21.4537 8.2502 21.2615 8.2502 21.0764V19.9233C8.2502 19.7382 8.26547 19.546 8.29603 19.3467L3.5752 16.0155L8.61686 7.90088L14.071 10.0363C14.4071 9.80852 14.7585 9.59498 15.1252 9.39567C15.4919 9.19636 15.8585 9.02553 16.2252 8.88317L16.9585 3.4165H27.0419L27.7752 8.88317C28.1724 9.02553 28.5467 9.19636 28.8981 9.39567C29.2495 9.59498 29.5932 9.80852 29.9294 10.0363L35.3835 7.90088L40.4252 16.0155L35.7044 19.3467C35.7349 19.546 35.7502 19.7382 35.7502 19.9233V21.0764C35.7502 21.2615 35.7196 21.4537 35.6585 21.653L40.3794 24.9842L35.3377 33.0988L29.9294 30.9634C29.5932 31.1912 29.2419 31.4047 28.8752 31.604C28.5085 31.8033 28.1419 31.9741 27.7752 32.1165L27.0419 37.5832H16.9585ZM22.0919 26.479C23.8641 26.479 25.3766 25.8953 26.6294 24.728C27.8821 23.5606 28.5085 22.1512 28.5085 20.4998C28.5085 18.8484 27.8821 17.4391 26.6294 16.2717C25.3766 15.1044 23.8641 14.5207 22.0919 14.5207C20.2891 14.5207 18.7689 15.1044 17.5314 16.2717C16.2939 17.4391 15.6752 18.8484 15.6752 20.4998C15.6752 22.1512 16.2939 23.5606 17.5314 24.728C18.7689 25.8953 20.2891 26.479 22.0919 26.479Z" fill="#1D1B20"/>
</svg>
